<svg width="430" height="308" viewBox="0 0 430 308" fill="none" xmlns="http://www.w3.org/2000/svg">
<mask id="mask0_835_809" style="mask-type:alpha" maskUnits="userSpaceOnUse" x="0" y="0" width="430" height="308">
<rect width="430" height="308" fill="#D9D9D9"/>
</mask>
<g mask="url(#mask0_835_809)">
<ellipse cx="214.5" cy="69.8664" rx="259.5" ry="162.866" fill="#3464CF"/>
<path d="M-31 178.01C-31 154.37 -10.6098 127.222 35.6362 104.796C80.5048 83.0377 143.895 69.0195 215 69.0195C286.105 69.0195 349.495 83.0377 394.364 104.796C440.61 127.222 461 154.37 461 178.01C461 201.65 440.61 228.798 394.364 251.224C349.495 272.982 286.105 287 215 287C143.895 287 80.5048 272.982 35.6362 251.224C-10.6098 228.798 -31 201.65 -31 178.01Z" stroke="#3464CF" stroke-opacity="0.1" stroke-width="40"/>
</g>
</svg>
