<svg width="44" height="61" viewBox="0 0 44 61" fill="none" xmlns="http://www.w3.org/2000/svg">
<path d="M11.6447 42.1343C9.99549 38.2763 5.75466 35.1693 2.4857 29.456C-1.7993 22.0935 -0.31207 13.9946 5.16566 11.4472C5.16566 3.26006 15.9739 -0.553711 25.3979 0.0647423C29.624 0.344519 33.5114 2.2735 37.7228 2.72998C38.8468 2.85988 39.9798 2.89435 41.1096 2.83304C41.4074 2.77381 41.7167 2.82623 41.9784 2.9803C42.1527 3.16032 42.2616 3.39366 42.2876 3.64293C42.4631 4.64888 42.3659 5.6835 42.0059 6.6391C41.6459 7.5947 41.0364 8.43636 40.2408 9.07648C41.0049 9.04465 41.7603 9.24776 42.4054 9.65849C43.0504 10.0692 43.5541 10.6678 43.8485 11.3736C43.9695 11.7233 44.0189 12.0938 43.9935 12.463C43.9682 12.8321 43.8687 13.1924 43.7011 13.5223C43.5334 13.8521 43.3009 14.1448 43.0176 14.3829C42.7342 14.6209 42.4058 14.7993 42.052 14.9076C42.4209 15.2666 42.6709 15.7302 42.7684 16.2357C42.8658 16.7412 42.8059 17.2644 42.5968 17.7348C42.1504 18.6785 41.3602 19.416 40.3881 19.7963C38.8962 20.3008 37.3384 20.5836 35.7644 20.6357C35.7644 20.6357 34.9251 24.0224 34.7925 24.3464C34.2696 25.572 33.5755 26.7172 32.731 27.7479C31.8838 28.7744 30.8917 29.6722 29.786 30.4131C28.4789 31.1255 27.0959 31.6886 25.663 32.0918C24.8204 32.3399 24.0061 32.6755 23.2333 33.0931C22.7419 33.5325 22.3023 34.0266 21.9228 34.5656C19.4048 37.2456 16.9016 39.9403 14.3836 42.635C13.8093 43.1651 12.381 42.0901 11.6447 42.1343Z" fill="#263238"/>
<path d="M10.7466 29.6474C10.6852 29.7187 10.6161 29.7829 10.5405 29.8388C9.43607 30.6487 9.34772 28.6461 8.14027 27.3797C7.80978 27.0608 7.41211 26.8199 6.9764 26.6746C6.5407 26.5294 6.07802 26.4835 5.62228 26.5404C4.87534 26.5643 4.15159 26.8055 3.53961 27.2344C2.92762 27.6633 2.45397 28.2614 2.17661 28.9553C1.94801 29.6686 1.86456 30.4204 1.93116 31.1665C1.99777 31.9125 2.21308 32.6376 2.56442 33.2991C2.91575 33.9606 3.39599 34.5451 3.97681 35.018C4.55762 35.491 5.22726 35.8428 5.94623 36.0528C6.78729 36.3336 7.69193 36.3634 8.54963 36.1385C9.40734 35.9136 10.181 35.4438 10.7761 34.7864L11.9982 49.8944C11.9982 49.8944 12.6756 51.3669 15.9298 52.6332C19.1841 53.8996 22.8506 53.1486 26.6939 56.771C28.2547 51.6319 30.5813 52.4565 28.6523 48.039L28.4609 44.9173C30.4751 44.8353 32.4634 44.4326 34.3509 43.7246C36.1969 42.9237 37.7954 41.6442 38.9811 40.0184C40.1668 38.3927 40.8966 36.4796 41.095 34.4772C41.4484 31.5322 40.4324 29.0584 40.2704 26.1576C40.182 24.42 40.5502 21.0185 40.4913 19.8847C40.5483 17.2727 39.7177 14.7187 38.1353 12.6399C36.0296 16.5862 24.6618 17.4992 16.725 14.775C16.8823 16.849 16.5019 18.9284 15.6206 20.8123C14.5307 22.737 12.9441 24.3338 11.0264 25.436C11.3228 26.4961 11.3632 27.6115 11.1442 28.6903C11.0853 29.0351 10.9494 29.3623 10.7466 29.6474Z" fill="#C8856A"/>
<path d="M22.9093 20.0467L19.4931 22.9917C19.1146 22.5192 18.9325 21.9192 18.9846 21.316C19.0367 20.7128 19.319 20.1528 19.7729 19.7522C19.9962 19.5613 20.2557 19.4172 20.5358 19.3285C20.8159 19.2398 21.1109 19.2082 21.4034 19.2357C21.696 19.2632 21.98 19.3491 22.2387 19.4884C22.4973 19.6277 22.7254 19.8176 22.9093 20.0467Z" fill="#263238"/>
<path d="M20.8038 25.7011C20.8504 26.0621 21.0031 26.4012 21.2424 26.6754C21.4818 26.9497 21.7971 27.1468 22.1484 27.2419C22.4998 27.337 22.8715 27.3257 23.2165 27.2096C23.5615 27.0935 23.8643 26.8776 24.0866 26.5894C24.3089 26.3012 24.4408 25.9535 24.4656 25.5904C24.4904 25.2272 24.4069 24.8649 24.2257 24.5491C24.0446 24.2334 23.7739 23.9785 23.4478 23.8166C23.1218 23.6547 22.7551 23.5931 22.3941 23.6396C21.9114 23.7056 21.4742 23.9589 21.1766 24.3446C20.8791 24.7303 20.7451 25.2175 20.8038 25.7011Z" fill="#263238"/>
<path d="M34.0123 24.9501C34.0815 25.4057 34.3274 25.8157 34.6967 26.0913C35.066 26.3669 35.529 26.4859 35.9854 26.4226C36.3342 26.3772 36.6614 26.2287 36.9253 25.9962C37.1891 25.7637 37.3776 25.4577 37.4665 25.1174C37.5555 24.7772 37.5409 24.4181 37.4246 24.0862C37.3084 23.7543 37.0957 23.4647 36.8138 23.2543C36.532 23.044 36.1938 22.9225 35.8425 22.9055C35.4912 22.8885 35.1429 22.9767 34.842 23.1588C34.5411 23.3409 34.3014 23.6087 34.1536 23.9278C34.0058 24.2469 33.9566 24.6029 34.0123 24.9501Z" fill="#263238"/>
<path d="M38.3117 21.6812L34.4832 19.281C34.6273 19.0246 34.8222 18.8003 35.0559 18.6218C35.2896 18.4433 35.5573 18.3142 35.8425 18.2426C36.1278 18.1709 36.4246 18.1582 36.715 18.2051C37.0053 18.2519 37.2831 18.3575 37.5313 18.5153C38.0416 18.843 38.407 19.3539 38.5521 19.9428C38.6973 20.5317 38.6113 21.1538 38.3117 21.6812Z" fill="#263238"/>
<path d="M28.4608 44.9173C24.6002 44.7799 20.8036 43.8895 17.2844 42.2962C15.3768 41.1239 13.8718 39.398 12.97 37.3486C13.4915 39.2741 14.4261 41.063 15.7088 42.5908C20.4209 47.185 28.5933 47.1113 28.5933 47.1113L28.4608 44.9173Z" fill="#AF6152"/>
<path d="M28.7996 24.1697L30.3457 33.2109L35.1166 31.4144C34.8663 30.8107 31.2439 24.7734 28.7996 24.1697Z" fill="#AF6152"/>
<path d="M30.4633 35.6552H30.2572C29.1876 35.8873 28.0699 35.7142 27.1207 35.1693C26.6348 34.8601 26.2372 34.433 25.7513 34.1385C25.5157 33.9913 25.0739 33.7409 25.1917 34.2416C25.6188 35.9644 28.3429 36.7154 29.8301 36.3914C30.0215 36.3914 31.229 35.9202 30.6106 35.6552C30.5625 35.6413 30.5114 35.6413 30.4633 35.6552Z" fill="#AF6152"/>
<path d="M26.6939 56.771C23.7489 54.6359 22.2764 54.2235 20.8038 55.2985C19.1856 56.927 17.7398 58.7183 16.4894 60.6437C14.2102 59.1595 12.1443 57.3711 10.349 55.328C8.06664 52.5449 8.155 51.308 8.155 51.308C9.04433 50.3879 9.78458 49.3347 10.349 48.1863C11.0264 46.5665 10.9675 46.0217 11.6743 45.9333L11.8215 47.6415C13.344 49.4669 15.2165 50.9689 17.3287 52.059C20.3032 53.4284 23.3071 52.8836 26.6939 56.771Z" fill="#B070BB"/>
<path opacity="0.6" d="M26.6939 56.771C23.7489 54.6359 22.2764 54.2235 20.8038 55.2985C19.1856 56.927 17.7398 58.7183 16.4894 60.6437C14.2102 59.1595 12.1443 57.3711 10.349 55.328C8.06664 52.5449 8.155 51.308 8.155 51.308C9.04433 50.3879 9.78458 49.3347 10.349 48.1863C11.0264 46.5665 10.9675 46.0217 11.6743 45.9333L11.8215 47.6415C13.344 49.4669 15.2165 50.9689 17.3287 52.059C20.3032 53.4284 23.3071 52.8836 26.6939 56.771Z" fill="white"/>
<path d="M26.6938 56.7709C27.0968 55.1726 27.6337 53.6112 28.2989 52.1031C28.5031 51.3745 28.6071 50.6215 28.6081 49.8649L28.5345 46.1542C28.7754 46.1292 29.0186 46.1694 29.2387 46.2704C29.4588 46.3714 29.6479 46.5296 29.7861 46.7285C31.3703 47.725 33.0591 48.5447 34.8221 49.1728C35.2938 51.9661 35.1022 54.8311 34.2625 57.5367C32.79 54.945 31.0966 54.3119 29.7272 54.3266C29.0371 54.3901 28.3811 54.6559 27.8415 55.0908C27.3018 55.5256 26.9026 56.1101 26.6938 56.7709Z" fill="#B070BB"/>
<path opacity="0.6" d="M26.6938 56.7709C27.0968 55.1726 27.6337 53.6112 28.2989 52.1031C28.5031 51.3745 28.6071 50.6215 28.6081 49.8649L28.5345 46.1542C28.7754 46.1292 29.0186 46.1694 29.2387 46.2704C29.4588 46.3714 29.6479 46.5296 29.7861 46.7285C31.3703 47.725 33.0591 48.5447 34.8221 49.1728C35.2938 51.9661 35.1022 54.8311 34.2625 57.5367C32.79 54.945 31.0966 54.3119 29.7272 54.3266C29.0371 54.3901 28.3811 54.6559 27.8415 55.0908C27.3018 55.5256 26.9026 56.1101 26.6938 56.7709Z" fill="white"/>
</svg>
