<svg width="49" height="57" viewBox="0 0 49 57" fill="none" xmlns="http://www.w3.org/2000/svg">
<path d="M16.6434 44.3404L12.6201 46.4196C15.1987 50.544 19.0919 53.679 23.6712 55.3187C31.5307 58.2712 34.2129 54.4662 34.2129 54.4662C34.2129 54.4662 37.3941 54.9133 38.0595 51.8776C39.0055 47.6568 33.5787 43.3008 33.5787 43.3008L16.6434 44.3404Z" fill="#BA68C8"/>
<path opacity="0.2" d="M16.6434 44.3404L12.6201 46.4196C15.1987 50.544 19.0919 53.679 23.6712 55.3187C31.5307 58.2712 34.2129 54.4662 34.2129 54.4662C34.2129 54.4662 37.3941 54.9133 38.0595 51.8776C39.0055 47.6568 33.5787 43.3008 33.5787 43.3008L16.6434 44.3404Z" fill="black"/>
<path d="M18.2972 40.0364C17.3691 40.0612 16.456 40.2771 15.615 40.6705C14.324 41.1231 12.9168 41.1192 11.6283 40.6595C10.3399 40.1997 9.24809 39.3119 8.53523 38.1443C8.00589 38.5821 7.34046 38.8216 6.65353 38.8216C5.96661 38.8216 5.30116 38.5821 4.77182 38.1443C4.26256 37.6826 3.87129 37.1057 3.63073 36.4618C3.39017 35.8179 3.30734 35.1257 3.38915 34.4432C3.02471 34.9864 2.89015 35.6517 3.01489 36.2937C2.14913 36.0154 1.39252 35.4724 0.85165 34.7413C0.310783 34.0102 0.0129084 33.1278 0 32.2185C0.0135598 30.3939 0.598952 28.6196 1.67378 27.1451C2.14598 26.5044 2.53381 25.8056 2.82775 25.0659C3.07095 23.7848 3.07095 22.4693 2.82775 21.1882C2.76537 20.0342 2.47429 14.6594 6.50799 12.6737C7.41984 9.00366 9.68504 5.8138 12.8496 3.74346C20.7091 -1.09074 25.325 -0.414992 31.4067 1.19641C34.6399 2.04889 37.4053 2.48553 41.3454 5.64595C43.0774 7.0845 44.446 8.91104 45.3401 10.9774C46.2342 13.0438 46.6287 15.2918 46.4915 17.5391C46.4261 19.241 45.8461 20.8831 44.8281 22.2486C44.4435 22.7476 44.142 23.1218 44.4227 23.7872C44.649 24.2193 44.956 24.6039 45.3271 24.9204C46.1255 25.6562 46.7996 26.5163 47.3232 27.4674C47.842 28.5409 48.1154 29.7163 48.1237 30.9086C48.1637 31.7321 48.04 32.5554 47.7598 33.3309C47.4781 34.1065 46.9238 34.7531 46.2004 35.1502C46.2843 34.42 46.1076 33.6836 45.7014 33.071C45.8792 33.9347 45.7728 34.8327 45.398 35.631C45.0232 36.4292 44.4003 37.0847 43.6222 37.4997C42.8368 37.8945 41.9717 38.1053 41.0927 38.1161C40.2137 38.1269 39.3438 37.9375 38.5489 37.5621C38.84 37.6972 36.9998 39.4542 36.8127 39.5685C35.9547 40.021 34.9964 40.2498 34.0266 40.2339C31.9179 40.322 29.8595 39.5749 28.2983 38.1547C27.7835 38.892 27.1283 39.5204 26.37 40.0039C25.6118 40.4874 24.7656 40.8164 23.8799 40.972C22.1334 41.2735 20.7611 40.6497 19.1705 40.2027C18.8866 40.1143 18.5937 40.0585 18.2972 40.0364Z" fill="#263238"/>
<path d="M42.1977 17.404C42.1317 16.3245 41.7239 15.2941 41.0333 14.4619C40.253 13.9096 39.3897 13.485 38.4759 13.2039C37.3877 12.7421 36.3777 12.1143 35.4818 11.343C35.6683 12.1909 36.0217 12.9931 36.5214 13.7029C37.0755 14.42 37.8165 14.9703 38.663 15.2936C37.4964 15.9753 36.219 16.4468 34.8892 16.6866C33.1881 16.9 31.4625 16.8049 29.7951 16.4059C27.9473 15.9605 26.2682 14.9891 24.9609 13.6094C25.1183 14.6569 25.6638 15.6068 26.4892 16.2708C27.3126 16.9147 28.2137 17.4526 29.1713 17.8718C28.1413 18.3052 27.0349 18.5285 25.9174 18.5285C24.7998 18.5285 23.6935 18.3052 22.6634 17.8718C21.8094 17.5902 21.0221 17.137 20.3499 16.5398C19.6776 15.9427 19.1347 15.2143 18.7544 14.3995C18.7544 14.8881 19.0247 16.7282 19.0039 17.2168C18.9946 18.0285 18.865 18.8343 18.6193 19.6079C18.0232 21.5549 16.8964 23.2974 15.3653 24.6397C15.7394 25.6123 15.8749 26.6604 15.7603 27.6961C15.7424 28.0259 15.6462 28.3466 15.4796 28.6318C15.4263 28.7024 15.3672 28.7685 15.3029 28.8293C14.3361 29.6818 14.0658 27.7897 12.8286 26.7501C12.4924 26.4743 12.0968 26.2801 11.673 26.1827C11.2491 26.0853 10.8085 26.0874 10.3855 26.1887C9.68362 26.2689 9.02135 26.5558 8.48273 27.0129C7.94411 27.4701 7.55343 28.077 7.36026 28.7565C6.62214 31.1892 8.54542 34.9942 11.6851 35.67C15.8435 36.5848 16.3217 33.6635 16.3217 33.6635L16.7168 45.8686C21.4415 50.6147 27.5978 53.6727 34.2343 54.5701C34.9828 49.9127 34.0679 47.2305 33.5169 45.9518V41.419C35.3868 41.1563 37.2039 40.602 38.9021 39.7764C40.5682 38.868 41.9445 37.5083 42.8731 35.8534C43.8017 34.1985 44.245 32.3153 44.1522 30.4199C44.0586 27.1867 43.1126 25.3258 42.6967 22.5916C42.416 20.8555 42.3952 18.454 42.1977 17.404Z" fill="#C8856A"/>
<path d="M33.4755 41.3462C29.8472 41.6685 27.2378 41.8452 22.7363 39.818C20.848 38.8639 19.2798 37.3787 18.2244 35.5452C18.2244 35.5452 19.5967 39.4541 21.4472 40.9408C26.2814 44.8393 33.4859 43.5294 33.4859 43.5294L33.4755 41.3462Z" fill="#AF6152"/>
<path d="M26.3018 20.5124L22.6528 22.5916C22.3705 22.0936 22.294 21.505 22.4397 20.9515C22.5853 20.3979 22.9416 19.9232 23.4325 19.6287C23.6776 19.4923 23.9477 19.4068 24.2267 19.3776C24.5056 19.3483 24.7876 19.3758 25.0557 19.4583C25.3238 19.5409 25.5724 19.6768 25.7865 19.858C26.0007 20.0391 26.1759 20.2617 26.3018 20.5124Z" fill="#263238"/>
<path d="M25.8758 24.962C25.9293 25.3011 26.0822 25.6168 26.3151 25.8691C26.548 26.1213 26.8505 26.2989 27.1843 26.3793C27.5181 26.4596 27.8682 26.4392 28.1904 26.3206C28.5126 26.202 28.7925 25.9906 28.9945 25.7129C29.1965 25.4353 29.3117 25.1041 29.3255 24.761C29.3392 24.4179 29.251 24.0785 29.0718 23.7856C28.8927 23.4926 28.6307 23.2594 28.3191 23.1154C28.0074 22.9713 27.66 22.9229 27.3208 22.9763C27.095 23.0104 26.8781 23.0891 26.6828 23.2077C26.4876 23.3263 26.3179 23.4825 26.1834 23.6672C26.049 23.8519 25.9526 24.0615 25.8998 24.2837C25.847 24.506 25.8388 24.7365 25.8758 24.962Z" fill="#263238"/>
<path d="M36.9057 22.6436C36.9611 22.982 37.1155 23.2963 37.3493 23.547C37.5831 23.7977 37.886 23.9736 38.2196 24.0525C38.5533 24.1313 38.9028 24.1096 39.2241 23.9901C39.5455 23.8706 39.8242 23.6587 40.0253 23.381C40.2263 23.1033 40.3406 22.7723 40.3538 22.4297C40.367 22.0871 40.2785 21.7483 40.0994 21.4559C39.9203 21.1636 39.6587 20.9308 39.3475 20.7869C39.0363 20.6431 38.6894 20.5946 38.3507 20.6476C38.1244 20.6829 37.9073 20.7628 37.712 20.8824C37.5167 21.0021 37.347 21.1592 37.2127 21.3448C37.0783 21.5303 36.9821 21.7406 36.9294 21.9635C36.8767 22.1864 36.8686 22.4176 36.9057 22.6436Z" fill="#263238"/>
<path d="M40.4302 18.8178L36.2717 18.0797C36.311 17.8062 36.4043 17.5434 36.5463 17.3064C36.6883 17.0694 36.8761 16.8632 37.0987 16.6996C37.3213 16.536 37.5743 16.4184 37.8428 16.3537C38.1114 16.289 38.3902 16.2785 38.6628 16.3227C39.2205 16.434 39.7144 16.7545 40.0431 17.2186C40.3717 17.6826 40.5103 18.2548 40.4302 18.8178Z" fill="#263238"/>
<path d="M29.7015 31.5947L34.8996 32.416C34.8644 32.7547 34.7604 33.0826 34.5937 33.3795C34.4271 33.6764 34.2015 33.9361 33.9308 34.1426C33.66 34.349 33.3499 34.4979 33.0195 34.58C32.689 34.6621 32.3453 34.6757 32.0094 34.62C31.3083 34.5118 30.6764 34.1363 30.2461 33.5722C29.8158 33.0082 29.6206 32.2995 29.7015 31.5947Z" fill="#AF6152"/>
<path d="M30.7098 32.6031C30.9345 32.566 31.1643 32.5738 31.386 32.626C31.6076 32.6781 31.8168 32.7736 32.0014 32.907C32.1859 33.0404 32.3423 33.2089 32.4614 33.403C32.5806 33.5971 32.6601 33.8128 32.6955 34.0378C32.7269 34.2305 32.7269 34.4271 32.6955 34.6199C32.4577 34.6563 32.2159 34.6563 31.9782 34.6199C31.5197 34.5438 31.0881 34.3521 30.7243 34.0629C30.3605 33.7737 30.0764 33.3965 29.8989 32.967C30.1323 32.7761 30.4121 32.6505 30.7098 32.6031Z" fill="#F28F8F"/>
<path d="M32.9761 22.5813L34.7642 29.5987L38.985 27.7066L32.9761 22.5813Z" fill="#AF6152"/>
</svg>
